<mxfile host="app.diagrams.net" modified="2022-03-07T12:51:31.712Z" agent="5.0 (X11; Linux x86_64) AppleWebKit/537.36 (KHTML, like Gecko) Chrome/98.0.4758.102 Safari/537.36" etag="FeCDygu3Ar1iZfJXAZyu" version="16.6.2" type="github">
  <diagram id="pz-RxRSOgmN3_xXPk1-8" name="Page-1">
    <mxGraphModel dx="1097" dy="491" grid="1" gridSize="10" guides="1" tooltips="1" connect="1" arrows="1" fold="1" page="1" pageScale="1" pageWidth="1169" pageHeight="827" math="0" shadow="0">
      <root>
        <mxCell id="0" />
        <mxCell id="1" parent="0" />
        <mxCell id="K_2-WA07wEE_jGCgqqVy-1" value="" style="rounded=0;whiteSpace=wrap;html=1;fillColor=#FFFFFF;" vertex="1" parent="1">
          <mxGeometry x="365" y="90" width="260" height="370" as="geometry" />
        </mxCell>
        <mxCell id="K_2-WA07wEE_jGCgqqVy-2" value="&lt;span style=&quot;color: rgb(32 , 33 , 34) ; font-family: sans-serif ; font-size: 15.008px&quot;&gt;Υ&lt;/span&gt;" style="text;html=1;resizable=0;autosize=1;align=center;verticalAlign=middle;points=[];fillColor=none;strokeColor=none;rounded=0;" vertex="1" parent="1">
          <mxGeometry x="480" y="104" width="30" height="20" as="geometry" />
        </mxCell>
        <mxCell id="K_2-WA07wEE_jGCgqqVy-3" value="&lt;span style=&quot;box-sizing: border-box ; font-weight: 600 ; color: rgb(64 , 64 , 64) ; font-family: , &amp;#34;blinkmacsystemfont&amp;#34; , &amp;#34;apple color emoji&amp;#34; , &amp;#34;segoe ui emoji&amp;#34; , &amp;#34;segoe ui symbol&amp;#34; , &amp;#34;segoe ui&amp;#34; , &amp;#34;pingfang sc&amp;#34; , &amp;#34;hiragino sans gb&amp;#34; , &amp;#34;microsoft yahei&amp;#34; , &amp;#34;helvetica neue&amp;#34; , &amp;#34;helvetica&amp;#34; , &amp;#34;arial&amp;#34; , sans-serif ; font-size: 16px ; text-align: left ; background-color: rgb(255 , 255 , 255)&quot;&gt;∏&lt;/span&gt;" style="text;html=1;resizable=0;autosize=1;align=center;verticalAlign=middle;points=[];fillColor=none;strokeColor=none;rounded=0;" vertex="1" parent="1">
          <mxGeometry x="480" y="164" width="30" height="20" as="geometry" />
        </mxCell>
        <mxCell id="K_2-WA07wEE_jGCgqqVy-4" value="&lt;span style=&quot;color: rgb(64 , 64 , 64) ; font-family: , &amp;#34;blinkmacsystemfont&amp;#34; , &amp;#34;apple color emoji&amp;#34; , &amp;#34;segoe ui emoji&amp;#34; , &amp;#34;segoe ui symbol&amp;#34; , &amp;#34;segoe ui&amp;#34; , &amp;#34;pingfang sc&amp;#34; , &amp;#34;hiragino sans gb&amp;#34; , &amp;#34;microsoft yahei&amp;#34; , &amp;#34;helvetica neue&amp;#34; , &amp;#34;helvetica&amp;#34; , &amp;#34;arial&amp;#34; , sans-serif ; font-size: 16px ; text-align: left ; background-color: rgb(255 , 255 , 255)&quot;&gt;⋈&lt;/span&gt;" style="text;html=1;resizable=0;autosize=1;align=center;verticalAlign=middle;points=[];fillColor=none;strokeColor=none;rounded=0;" vertex="1" parent="1">
          <mxGeometry x="480" y="234" width="30" height="20" as="geometry" />
        </mxCell>
        <mxCell id="K_2-WA07wEE_jGCgqqVy-5" value="&lt;h4 style=&quot;box-sizing: border-box ; margin-top: 0px ; margin-bottom: 16px ; color: rgb(64 , 64 , 64) ; font-size: 20px ; font-family: , &amp;#34;blinkmacsystemfont&amp;#34; , &amp;#34;apple color emoji&amp;#34; , &amp;#34;segoe ui emoji&amp;#34; , &amp;#34;segoe ui symbol&amp;#34; , &amp;#34;segoe ui&amp;#34; , &amp;#34;pingfang sc&amp;#34; , &amp;#34;hiragino sans gb&amp;#34; , &amp;#34;microsoft yahei&amp;#34; , &amp;#34;helvetica neue&amp;#34; , &amp;#34;helvetica&amp;#34; , &amp;#34;arial&amp;#34; , sans-serif ; text-align: left ; background-color: rgb(255 , 255 , 255)&quot;&gt;&lt;span style=&quot;font-family: , &amp;#34;blinkmacsystemfont&amp;#34; , &amp;#34;apple color emoji&amp;#34; , &amp;#34;segoe ui emoji&amp;#34; , &amp;#34;segoe ui symbol&amp;#34; , &amp;#34;segoe ui&amp;#34; , &amp;#34;pingfang sc&amp;#34; , &amp;#34;hiragino sans gb&amp;#34; , &amp;#34;microsoft yahei&amp;#34; , &amp;#34;helvetica neue&amp;#34; , &amp;#34;helvetica&amp;#34; , &amp;#34;arial&amp;#34; , sans-serif ; font-size: 16px ; font-weight: 400&quot;&gt;σ&lt;/span&gt;&lt;br&gt;&lt;/h4&gt;" style="text;html=1;resizable=0;autosize=1;align=center;verticalAlign=middle;points=[];fillColor=none;strokeColor=none;rounded=0;" vertex="1" parent="1">
          <mxGeometry x="420" y="280" width="30" height="40" as="geometry" />
        </mxCell>
        <mxCell id="K_2-WA07wEE_jGCgqqVy-6" value="&lt;h4 style=&quot;box-sizing: border-box ; margin-top: 0px ; margin-bottom: 16px ; color: rgb(64 , 64 , 64) ; font-size: 20px ; font-family: , &amp;#34;blinkmacsystemfont&amp;#34; , &amp;#34;apple color emoji&amp;#34; , &amp;#34;segoe ui emoji&amp;#34; , &amp;#34;segoe ui symbol&amp;#34; , &amp;#34;segoe ui&amp;#34; , &amp;#34;pingfang sc&amp;#34; , &amp;#34;hiragino sans gb&amp;#34; , &amp;#34;microsoft yahei&amp;#34; , &amp;#34;helvetica neue&amp;#34; , &amp;#34;helvetica&amp;#34; , &amp;#34;arial&amp;#34; , sans-serif ; text-align: left ; background-color: rgb(255 , 255 , 255)&quot;&gt;&lt;span style=&quot;font-family: , &amp;#34;blinkmacsystemfont&amp;#34; , &amp;#34;apple color emoji&amp;#34; , &amp;#34;segoe ui emoji&amp;#34; , &amp;#34;segoe ui symbol&amp;#34; , &amp;#34;segoe ui&amp;#34; , &amp;#34;pingfang sc&amp;#34; , &amp;#34;hiragino sans gb&amp;#34; , &amp;#34;microsoft yahei&amp;#34; , &amp;#34;helvetica neue&amp;#34; , &amp;#34;helvetica&amp;#34; , &amp;#34;arial&amp;#34; , sans-serif ; font-size: 16px ; font-weight: 400&quot;&gt;σ&lt;/span&gt;&lt;br&gt;&lt;/h4&gt;" style="text;html=1;resizable=0;autosize=1;align=center;verticalAlign=middle;points=[];fillColor=none;strokeColor=none;rounded=0;" vertex="1" parent="1">
          <mxGeometry x="540" y="280" width="30" height="40" as="geometry" />
        </mxCell>
        <mxCell id="K_2-WA07wEE_jGCgqqVy-7" value="&lt;span style=&quot;color: rgb(64 , 64 , 64) ; font-size: 16px ; font-weight: 600 ; text-align: left ; background-color: rgb(255 , 255 , 255)&quot;&gt;∏&lt;/span&gt;" style="text;html=1;resizable=0;autosize=1;align=center;verticalAlign=middle;points=[];fillColor=none;strokeColor=none;rounded=0;" vertex="1" parent="1">
          <mxGeometry x="420" y="360" width="30" height="20" as="geometry" />
        </mxCell>
        <mxCell id="K_2-WA07wEE_jGCgqqVy-8" value="&lt;span style=&quot;color: rgb(64 , 64 , 64) ; font-size: 16px ; font-weight: 600 ; text-align: left ; background-color: rgb(255 , 255 , 255)&quot;&gt;∏&lt;/span&gt;" style="text;html=1;resizable=0;autosize=1;align=center;verticalAlign=middle;points=[];fillColor=none;strokeColor=none;rounded=0;" vertex="1" parent="1">
          <mxGeometry x="540" y="360" width="30" height="20" as="geometry" />
        </mxCell>
        <mxCell id="K_2-WA07wEE_jGCgqqVy-9" value="table1" style="ellipse;shape=cloud;whiteSpace=wrap;html=1;" vertex="1" parent="1">
          <mxGeometry x="410" y="414" width="60" height="30" as="geometry" />
        </mxCell>
        <mxCell id="K_2-WA07wEE_jGCgqqVy-10" value="table2" style="ellipse;shape=cloud;whiteSpace=wrap;html=1;" vertex="1" parent="1">
          <mxGeometry x="531" y="414" width="60" height="30" as="geometry" />
        </mxCell>
        <mxCell id="K_2-WA07wEE_jGCgqqVy-12" value="" style="endArrow=none;html=1;rounded=0;exitX=0.48;exitY=1.03;exitDx=0;exitDy=0;exitPerimeter=0;entryX=0.567;entryY=-0.05;entryDx=0;entryDy=0;entryPerimeter=0;" edge="1" parent="1" source="K_2-WA07wEE_jGCgqqVy-4">
          <mxGeometry width="50" height="50" relative="1" as="geometry">
            <mxPoint x="560" y="204" as="sourcePoint" />
            <mxPoint x="437.01" y="282" as="targetPoint" />
          </mxGeometry>
        </mxCell>
        <mxCell id="K_2-WA07wEE_jGCgqqVy-22" value="交集" style="edgeLabel;html=1;align=center;verticalAlign=middle;resizable=0;points=[];fillColor=#FFE599;" vertex="1" connectable="0" parent="K_2-WA07wEE_jGCgqqVy-12">
          <mxGeometry x="-0.3455" relative="1" as="geometry">
            <mxPoint x="19" as="offset" />
          </mxGeometry>
        </mxCell>
        <mxCell id="K_2-WA07wEE_jGCgqqVy-13" value="" style="endArrow=none;html=1;rounded=0;exitX=0.533;exitY=1.01;exitDx=0;exitDy=0;exitPerimeter=0;entryX=0.5;entryY=0.025;entryDx=0;entryDy=0;entryPerimeter=0;" edge="1" parent="1" source="K_2-WA07wEE_jGCgqqVy-4">
          <mxGeometry width="50" height="50" relative="1" as="geometry">
            <mxPoint x="507.0100000000002" y="267" as="sourcePoint" />
            <mxPoint x="555" y="285.0000000000001" as="targetPoint" />
          </mxGeometry>
        </mxCell>
        <mxCell id="K_2-WA07wEE_jGCgqqVy-14" value="" style="endArrow=none;html=1;rounded=0;entryX=0.537;entryY=1.002;entryDx=0;entryDy=0;entryPerimeter=0;" edge="1" parent="1" target="K_2-WA07wEE_jGCgqqVy-2">
          <mxGeometry width="50" height="50" relative="1" as="geometry">
            <mxPoint x="495" y="164" as="sourcePoint" />
            <mxPoint x="457.01" y="302" as="targetPoint" />
          </mxGeometry>
        </mxCell>
        <mxCell id="K_2-WA07wEE_jGCgqqVy-20" value="聚合" style="edgeLabel;html=1;align=center;verticalAlign=middle;resizable=0;points=[];fillColor=#FFE599;" vertex="1" connectable="0" parent="K_2-WA07wEE_jGCgqqVy-14">
          <mxGeometry x="-0.3323" relative="1" as="geometry">
            <mxPoint y="-7" as="offset" />
          </mxGeometry>
        </mxCell>
        <mxCell id="K_2-WA07wEE_jGCgqqVy-15" value="" style="endArrow=none;html=1;rounded=0;exitX=0.513;exitY=1.05;exitDx=0;exitDy=0;exitPerimeter=0;entryX=0.491;entryY=-0.119;entryDx=0;entryDy=0;entryPerimeter=0;" edge="1" parent="1" source="K_2-WA07wEE_jGCgqqVy-3" target="K_2-WA07wEE_jGCgqqVy-4">
          <mxGeometry width="50" height="50" relative="1" as="geometry">
            <mxPoint x="527.0100000000002" y="287" as="sourcePoint" />
            <mxPoint x="467.01" y="312" as="targetPoint" />
          </mxGeometry>
        </mxCell>
        <mxCell id="K_2-WA07wEE_jGCgqqVy-21" value="投影" style="edgeLabel;html=1;align=center;verticalAlign=middle;resizable=0;points=[];fillColor=#FFE599;" vertex="1" connectable="0" parent="K_2-WA07wEE_jGCgqqVy-15">
          <mxGeometry x="0.3869" relative="1" as="geometry">
            <mxPoint y="-13" as="offset" />
          </mxGeometry>
        </mxCell>
        <mxCell id="K_2-WA07wEE_jGCgqqVy-16" value="" style="endArrow=none;html=1;rounded=0;exitX=0.481;exitY=1.013;exitDx=0;exitDy=0;exitPerimeter=0;entryX=0.481;entryY=-0.045;entryDx=0;entryDy=0;entryPerimeter=0;" edge="1" parent="1" source="K_2-WA07wEE_jGCgqqVy-5" target="K_2-WA07wEE_jGCgqqVy-7">
          <mxGeometry width="50" height="50" relative="1" as="geometry">
            <mxPoint x="537.0100000000002" y="293" as="sourcePoint" />
            <mxPoint x="477.01" y="318" as="targetPoint" />
          </mxGeometry>
        </mxCell>
        <mxCell id="K_2-WA07wEE_jGCgqqVy-25" value="消除" style="edgeLabel;html=1;align=center;verticalAlign=middle;resizable=0;points=[];" vertex="1" connectable="0" parent="K_2-WA07wEE_jGCgqqVy-16">
          <mxGeometry x="-0.436" relative="1" as="geometry">
            <mxPoint x="1" y="9" as="offset" />
          </mxGeometry>
        </mxCell>
        <mxCell id="K_2-WA07wEE_jGCgqqVy-17" value="" style="endArrow=none;html=1;rounded=0;entryX=0.497;entryY=-0.093;entryDx=0;entryDy=0;entryPerimeter=0;" edge="1" parent="1" source="K_2-WA07wEE_jGCgqqVy-6" target="K_2-WA07wEE_jGCgqqVy-8">
          <mxGeometry width="50" height="50" relative="1" as="geometry">
            <mxPoint x="547.0100000000002" y="303" as="sourcePoint" />
            <mxPoint x="487.01" y="328" as="targetPoint" />
          </mxGeometry>
        </mxCell>
        <mxCell id="K_2-WA07wEE_jGCgqqVy-26" value="消除" style="edgeLabel;html=1;align=center;verticalAlign=middle;resizable=0;points=[];" vertex="1" connectable="0" parent="K_2-WA07wEE_jGCgqqVy-17">
          <mxGeometry x="-0.5666" y="-1" relative="1" as="geometry">
            <mxPoint x="1" y="12" as="offset" />
          </mxGeometry>
        </mxCell>
        <mxCell id="K_2-WA07wEE_jGCgqqVy-18" value="" style="endArrow=none;html=1;rounded=0;exitX=0.481;exitY=1.026;exitDx=0;exitDy=0;exitPerimeter=0;entryX=0.4;entryY=0.1;entryDx=0;entryDy=0;entryPerimeter=0;" edge="1" parent="1" source="K_2-WA07wEE_jGCgqqVy-7" target="K_2-WA07wEE_jGCgqqVy-9">
          <mxGeometry width="50" height="50" relative="1" as="geometry">
            <mxPoint x="557.0100000000002" y="313" as="sourcePoint" />
            <mxPoint x="497.01" y="338" as="targetPoint" />
          </mxGeometry>
        </mxCell>
        <mxCell id="K_2-WA07wEE_jGCgqqVy-23" value="投影" style="edgeLabel;html=1;align=center;verticalAlign=middle;resizable=0;points=[];" vertex="1" connectable="0" parent="K_2-WA07wEE_jGCgqqVy-18">
          <mxGeometry x="0.3631" y="1" relative="1" as="geometry">
            <mxPoint as="offset" />
          </mxGeometry>
        </mxCell>
        <mxCell id="K_2-WA07wEE_jGCgqqVy-19" value="" style="endArrow=none;html=1;rounded=0;exitX=0.481;exitY=0.955;exitDx=0;exitDy=0;exitPerimeter=0;entryX=0.4;entryY=0.1;entryDx=0;entryDy=0;entryPerimeter=0;" edge="1" parent="1" source="K_2-WA07wEE_jGCgqqVy-8" target="K_2-WA07wEE_jGCgqqVy-10">
          <mxGeometry width="50" height="50" relative="1" as="geometry">
            <mxPoint x="444.43000000000006" y="390.5200000000001" as="sourcePoint" />
            <mxPoint x="444.0000000000002" y="426.9999999999999" as="targetPoint" />
          </mxGeometry>
        </mxCell>
        <mxCell id="K_2-WA07wEE_jGCgqqVy-24" value="投影" style="edgeLabel;html=1;align=center;verticalAlign=middle;resizable=0;points=[];" vertex="1" connectable="0" parent="K_2-WA07wEE_jGCgqqVy-19">
          <mxGeometry x="0.4304" relative="1" as="geometry">
            <mxPoint as="offset" />
          </mxGeometry>
        </mxCell>
      </root>
    </mxGraphModel>
  </diagram>
</mxfile>
